HIERARCHY
ROOT ui
{
	 OFFSET 0 0 0
	 CHANNELS 3 XPosition YPosition Z Position
	 EndSite
	 {
	 OFFSET 0 -1 0
	 }
}
ROOT li
{
	 OFFSET 0 0 0
	 CHANNELS 3 XPosition YPosition Z Position
	 EndSite
	 {
	 OFFSET 0 -1 0
	 }
}
ROOT ul
{
	 OFFSET 0 0 0
	 CHANNELS 3 XPosition YPosition Z Position
	 EndSite
	 {
	 OFFSET 0 -1 0
	 }
}
ROOT ll
{
	 OFFSET 0 0 0
	 CHANNELS 3 XPosition YPosition Z Position
	 EndSite
	 {
	 OFFSET 0 -1 0
	 }
}
ROOT tt
{
	 OFFSET 0 0 0
	 CHANNELS 3 XPosition YPosition Z Position
	 EndSite
	 {
	 OFFSET 0 -1 0
	 }
}
ROOT tb
{
	 OFFSET 0 0 0
	 CHANNELS 3 XPosition YPosition Z Position
	 EndSite
	 {
	 OFFSET 0 -1 0
	 }
}
ROOT td
{
	 OFFSET 0 0 0
	 CHANNELS 3 XPosition YPosition Z Position
	 EndSite
	 {
	 OFFSET 0 -1 0
	 }
}
ROOT v
{
	 OFFSET 0 0 0
	 CHANNELS 3 XPosition YPosition Z Position
	 EndSite
	 {
	 OFFSET 0 -1 0
	 }
}
ROOT bn
{
	 OFFSET 0 0 0
	 CHANNELS 3 XPosition YPosition Z Position
	 EndSite
	 {
	 OFFSET 0 -1 0
	 }
}
MOTION
Frames: 32
Frame Time: 0.002
0.0032844550609588625	3.3799099922180174E-4	0		0.37883944702148437	-2.464703125	0		-1.0414644775390625	-0.0904185791015625	0		-0.8011923828125	-2.337385009765625	0		0.8238441162109374	-0.6921602783203125	0		2.37122900390625	0.110651123046875	0		3.92128271484375	0.4914283447265625	0		5.24480712890625	0.42597964477539063	0		-0.2714601745605469	5.86168896484375	0		
0.01653423500061035	-0.004555537223815918	0		0.3851497802734375	-2.457546875	0		-1.040017822265625	-0.07020335388183593	0		-0.870862060546875	-2.327611328125	0		0.87220166015625	-0.682342529296875	0		2.3486474609375	0.1270083770751953	0		3.93063427734375	0.4985111083984375	0		5.24510302734375	0.426115234375	0		-0.28715097045898436	5.85402880859375	0		
0.0038595120906829835	7.831689715385437E-4	0		0.39739016723632814	-2.45941015625	0		-0.9778224487304688	-0.0814457015991211	0		-0.8027011108398437	-2.3399033203125	0		0.8664317016601563	-0.6880689086914062	0		2.303832763671875	0.11457379150390624	0		3.930925537109375	0.49870126342773435	0		5.240330078125	0.4183298950195313	0		-0.2867972412109375	5.8542685546875	0		
0.00413454008102417	0.0010470889806747437	0		0.3706659851074219	-2.455936279296875	0		-1.0465777587890626	-0.08462508392333984	0		-0.8144008178710938	-2.33353662109375	0		0.8667000732421875	-0.6878133544921875	0		2.350099365234375	0.11345074462890625	0		3.931102294921875	0.48592755126953124	0		5.2365380859375	0.4095750732421875	0		-0.3025442810058594	5.844662109375	0		
3.679409921169281E-4	-0.0016282520294189453	0		0.40579937744140626	-2.468923583984375	0		-1.0403612060546874	-0.08937142181396485	0		-0.8082576293945313	-2.345284423828125	0		0.8669517211914063	-0.68752734375	0		2.3563017578125	0.10667764282226562	0		3.931410888671875	0.4921891784667969	0		5.23566357421875	0.39283502197265624	0		-0.28616217041015624	5.854830078125	0		
0.004622140884399414	0.001662680983543396	0		0.3540878601074219	-2.459190673828125	0		-1.0270443115234376	-0.07814583587646484	0		-0.8040098266601563	-2.34098876953125	0		0.867177978515625	-0.6872098999023437	0		2.34465234375	0.122080810546875	0		3.93569189453125	0.49845587158203125	0		5.224896484375	0.39321304321289063	0		-0.27081674194335936	5.86503515625	0		
0.004816749095916748	0.0020163979530334474	0		0.4392294006347656	-2.464513671875	0		-1.021889892578125	-0.08282723236083984	0		-0.8038253784179688	-2.34063134765625	0		0.828458251953125	-0.6755503540039063	0		2.35078369140625	0.11437696838378907	0		3.957887939453125	0.49861773681640625	0		5.2370927734375	0.3934488220214844	0		-0.25163711547851564	5.8602392578125	0		
0.0049652037620544435	0.002401815891265869	0		0.3823973388671875	-2.46067626953125	0		-1.0217416381835938	-0.08243924713134766	0		-0.8077144775390624	-2.344212158203125	0		0.8705401000976563	-0.6835006103515625	0		2.366987548828125	0.12162911224365235	0		3.95803759765625	0.4989932861328125	0		5.2262421875	0.3939085998535156	0		-0.25147401428222654	5.86062548828125	0		
0.0010324620008468628	-1.4882899820804597E-4	0		0.42649288940429686	-2.459609130859375	0		-1.0216507568359374	-0.08202095794677734	0		-0.8106491088867187	-2.34677001953125	0		0.8196162109375	-0.6846782836914063	0		2.340039794921875	0.11725948333740234	0		3.963081298828125	0.49336798095703127	0		5.2102705078125	0.3864493103027344	0		-0.30149600219726563	5.84644091796875	0		
-0.04791215515136719	0.004689961910247803	0		0.3804941711425781	-2.46179345703125	0		-1.0156685791015625	-0.08661978912353516	0		-0.8026973266601563	-2.355384521484375	0		0.8706530151367188	-0.6826338500976562	0		2.33500634765625	0.11075040435791016	0		3.95415087890625	0.49989138793945315	0		5.20422119140625	0.3779501647949219	0		-0.2693278198242188	5.86563525390625	0		
0.013950320243835449	-0.005321721076965332	0		0.41937008666992187	-2.47062158203125	0		-1.091714111328125	-0.08453691864013672	0		-0.8657548217773438	-2.355404541015625	0		0.8286631469726562	-0.6738178100585938	0		2.345052978515625	0.12415585327148437	0		3.959141357421875	0.5063399047851562	0		5.2151640625	0.37835357666015623	0		-0.26940313720703124	5.86511572265625	0		
-0.03515567398071289	-4.208469986915588E-4	0		0.3883821105957031	-2.451863037109375	0		-1.005871826171875	-0.08671167755126953	0		-0.8008652954101563	-2.352411865234375	0		0.8375096435546875	-0.6753750610351562	0		2.33302490234375	0.13876943969726563	0		3.972008056640625	0.5077601318359375	0		5.20402392578125	0.37896826171875	0		-0.27054409790039063	5.86763427734375	0		
0.004658852100372314	0.0048032917976379395	0		0.43707077026367186	-2.463708251953125	0		-1.0120555419921875	-0.08112598419189453	0		-0.8071356201171875	-2.358824951171875	0		0.8762950439453125	-0.6741395263671875	0		2.328649658203125	0.12035280609130859	0		3.98478173828125	0.5082141723632813	0		5.20060791015625	0.3555548400878906	0		-0.25183082580566407	5.86302490234375	0		
-0.042741199493408204	-0.006251214981079101	0		0.4367752685546875	-2.46313427734375	0		-1.0104329223632813	-0.08957392120361328	0		-0.7744881591796875	-2.36551806640625	0		0.8729600830078125	-0.6775396728515625	0		2.3283427734375	0.12093508911132812	0		3.9714736328125	0.5089068908691406	0		5.20030029296875	0.35614971923828126	0		-0.3012882080078125	5.84798486328125	0		
-5.330900102853775E-5	0.0030090041160583496	0		0.40942901611328125	-2.45931640625	0		-1.0708525390625	-0.09350072479248046	0		-0.8069298706054687	-2.373665771484375	0		0.8695573120117187	-0.6799100341796875	0		2.37889501953125	0.11314324951171875	0		3.99308056640625	0.5083523559570312	0		5.19485302734375	0.348815185546875	0		-0.2715315246582031	5.8693466796875	0		
-5.006510019302369E-4	0.0036401360034942626	0		0.41994476318359375	-2.4647705078125	0		-1.0712994384765624	-0.09287437438964843	0		-0.8073665771484375	-2.373038330078125	0		0.8360664672851562	-0.68501318359375	0		2.31562353515625	0.1362837371826172	0		3.996686279296875	0.5159694213867188	0		5.20540380859375	0.34938232421875	0		-0.2860918273925781	5.859087890625	0		
0.01195210075378418	-0.0018026469945907593	0		0.42147137451171873	-2.46212451171875	0		-1.0627431640625	-0.08529026031494141	0		-0.8078561401367188	-2.372381591796875	0		0.8746718139648437	-0.6716591796875	0		2.366955810546875	0.11554191589355468	0		4.0091845703125	0.5165428466796875	0		5.20184765625	0.34308770751953127	0		-0.271536376953125	5.8696279296875	0		
-0.001538017988204956	0.004988225936889648	0		0.4369652099609375	-2.458561767578125	0		-0.9963463134765626	-0.09313629150390625	0		-0.7774581298828125	-2.380941650390625	0		0.823121826171875	-0.6725640869140626	0		2.37057568359375	0.13620596313476563	0		4.012699951171875	0.5242130126953125	0		5.19131640625	0.34487313842773437	0		-0.26822183227539065	5.85428369140625	0		
-0.002102613925933838	0.0057029399871826175	0		0.4074159851074219	-2.456616455078125	0		-1.068876708984375	-0.08785432434082031	0		-0.7450728759765625	-2.387489990234375	0		0.86751806640625	-0.6772032470703125	0		2.359916015625	0.12500653076171875	0		4.0161337890625	0.52490673828125	0		5.180625	0.32968133544921874	0		-0.2887459411621094	5.86215576171875	0		
0.007246362209320068	-0.0026366689205169678	0		0.4338157043457031	-2.459090087890625	0		-1.05846435546875	-0.0882037353515625	0		-0.8266619262695313	-2.388110595703125	0		0.8219806518554688	-0.6711066284179688	0		2.331392578125	0.13297084045410157	0		4.01660107421875	0.5316441040039063	0		5.1759814453125	0.32246047973632813	0		-0.2873582458496094	5.85987890625	0		
0.006663224220275879	-0.0018755799531936645	0		0.39326593017578126	-2.454012451171875	0		-1.0509923095703124	-0.08050637817382812	0		-0.8193240356445313	-2.39741259765625	0		0.8412861328125	-0.6845032348632812	0		2.369737060546875	0.12442391967773438	0		4.025017578125	0.5323346557617188	0		5.1813349609375	0.31517523193359376	0		-0.27286370849609376	5.87052099609375	0		
0.013141657829284668	0.00584878921508789	0		0.44966018676757813	-2.45668408203125	0		-1.0384825439453125	-0.06882814788818359	0		-0.8119757080078125	-2.405694580078125	0		0.8147884521484375	-0.6735189208984375	0		2.347287841796875	0.14137428283691406	0		4.037552001953125	0.5470056762695312	0		5.18769482421875	0.307892822265625	0		-0.28851092529296873	5.86142041015625	0		
0.005524168968200684	-2.996529936790466E-4	0		0.4361221618652344	-2.451786865234375	0		-1.04810009765625	-0.0749573974609375	0		-0.7506901245117188	-2.423386474609375	0		0.8682381591796875	-0.6711533203125	0		2.342575439453125	0.12319502258300781	0		4.03193603515625	0.5408285522460937	0		5.1680234375	0.2948231506347656	0		-0.2550081024169922	5.86794775390625	0		
0.004982258796691895	5.088040232658387E-4	0		0.43556747436523435	-2.450980712890625	0		-1.0395872802734376	-0.06721500396728515	0		-0.8072349853515625	-2.42113037109375	0		0.8197100830078125	-0.667968994140625	0		2.33608984375	0.13103863525390624	0		4.048451904296875	0.5484810791015625	0		5.20148974609375	0.29633523559570313	0		-0.30464471435546875	5.853146484375	0		
-0.0035903420448303225	-0.0056101570129394535	0		0.4449600830078125	-2.45924560546875	0		-1.0241531982421874	-0.07251654815673828	0		-0.7689224243164062	-2.43961572265625	0		0.8690989379882812	-0.6785540161132813	0		2.36351708984375	0.12461663055419922	0		4.052986083984375	0.555228271484375	0		5.2059033203125	0.28807427978515626	0		-0.3041261291503906	5.8529580078125	0		
0.007935647010803223	-0.002882549047470093	0		0.4533822937011719	-2.466498291015625	0		-1.0885460205078126	-0.05917545700073242	0		-0.8275455322265625	-2.452323974609375	0		0.838579833984375	-0.6805013427734375	0		2.351140625	0.13951091003417967	0		4.0565576171875	0.5629788818359375	0		5.1962900390625	0.2729173583984375	0		-0.2904783020019531	5.8636728515625	0		
0.006540306091308594	0.005950778007507324	0		0.4469962158203125	-2.452630859375	0		-1.0079844360351562	-0.05598062896728516	0		-0.7700687255859375	-2.45594921875	0		0.8771190795898437	-0.678996337890625	0		2.367619140625	0.13217236328125	0		4.056105712890625	0.5637540893554688	0		5.1858505859375	0.27575787353515624	0		-0.2908642883300781	5.864501953125	0		
0.007049614906311035	-0.0012310409545898437	0		0.4434930419921875	-2.456787353515625	0		-1.08540185546875	-0.05352601623535156	0		-0.7686597290039062	-2.471127197265625	0		0.8627462158203125	-0.6700720825195312	0		2.383249267578125	0.13983546447753906	0		4.06474267578125	0.5714478759765625	0		5.1982998046875	0.26040374755859375	0		-0.27124465942382814	5.8601728515625	0		
0.006654493808746338	-4.076189994812012E-4	0		0.44305584716796875	-2.455971435546875	0		-1.008808349609375	-0.05429884338378906	0		-0.7781687622070312	-2.47921826171875	0		0.856283935546875	-0.6762151489257813	0		2.34986572265625	0.1418817138671875	0		4.059413330078125	0.5792415161132812	0		5.19284521484375	0.2531783905029297	0		-0.2715393371582031	5.86100146484375	0		
-0.005725977897644043	-0.0014933969974517823	0		0.4495632019042969	-2.465217529296875	0		-1.1001552734375	-0.050732597351074216	0		-0.77369384765625	-2.492424560546875	0		0.8608657836914062	-0.680453369140625	0		2.3715029296875	0.14247830200195313	0		4.077003173828125	0.5728372802734375	0		5.193357421875	0.23788862609863282	0		-0.29175009155273435	5.86698486328125	0		
0.005952558994293213	0.001220420002937317	0		0.45321295166015624	-2.459449462890625	0		-1.0574627685546876	-0.046244121551513674	0		-0.756229736328125	-2.50974169921875	0		0.8664656982421876	-0.6857098388671875	0		2.38720849609375	0.14810867309570314	0		4.06783935546875	0.593631103515625	0		5.20402490234375	0.23849847412109376	0		-0.28799298095703124	5.86376904296875	0		
0.014631757736206055	9.47130024433136E-4	0		0.454858154296875	-2.456677001953125	0		-1.087718994140625	-0.038178421020507815	0		-0.756601806640625	-2.508924560546875	0		0.8582579345703125	-0.6698671875	0		2.37085986328125	0.1439803009033203	0		4.08854833984375	0.5951647338867188	0		5.20559716796875	0.2241586456298828	0		-0.290150146484375	5.86659130859375	0		
